<?xml version="1.0" encoding="utf-8"?>
<!-- Generator: Adobe Illustrator 15.0.0, SVG Export Plug-In  -->
<!DOCTYPE svg PUBLIC "-//W3C//DTD SVG 1.1//EN" "http://www.w3.org/Graphics/SVG/1.1/DTD/svg11.dtd" [
	<!ENTITY ns_flows "http://ns.adobe.com/Flows/1.0/">
]>
<svg version="1.1"
	 xmlns="http://www.w3.org/2000/svg" xmlns:xlink="http://www.w3.org/1999/xlink" xmlns:a="http://ns.adobe.com/AdobeSVGViewerExtensions/3.0/"
	 x="0px" y="0px" width="95px" height="60px" viewBox="-3 -0.833 75 40" enable-background="new -3 -0.833 75 40"
	 xml:space="preserve">
<defs>
</defs>
<path class="letter" fill="#fff" d="M23.851,2.285c-1.911,2.597-3.999,5.78-6.271,9.55c-1.282,2.126-1.99,3.486-2.122,4.078
	c-0.073,0.313-0.109,0.768-0.109,1.359v1.794c0,3.539,0.109,5.509,0.327,5.908c0.096,0.172,0.236,0.279,0.416,0.328
	c0.303,0.084,1.046,0.162,2.23,0.232l0.181,0.184v1.215l-0.181,0.182c-1.196-0.074-3.057-0.109-5.582-0.109
	c-2.586,0-4.447,0.035-5.582,0.109l-0.164-0.162v-1.234l0.182-0.184c1.185-0.07,1.928-0.148,2.229-0.232
	c0.182-0.049,0.321-0.156,0.418-0.328c0.217-0.398,0.326-2.369,0.326-5.908v-2.138c0-0.46-0.949-2.295-2.846-5.509
	C5.369,8.144,3.83,5.921,2.682,4.749c-0.556-0.567-0.93-0.891-1.124-0.969C1.363,3.7,0.912,3.661,0.2,3.661L0,3.462V2.447
	l0.18-0.199c2.949-0.58,4.838-0.991,5.673-1.233c0.627,0.302,1.189,0.694,1.685,1.178c1.026,1.003,2.403,3.238,4.132,6.706
	l2.375,4.748c0.712-1.147,2.07-3.455,4.077-6.923l2.012-3.606c0.218-0.399,0.514-0.948,0.888-1.649h2.647l0.181,0.181V2.285z"/>
<path fill="#fff" d="M36.883,26.897l-0.201,0.197c-1.013-0.061-2.179-0.09-3.496-0.09c-1.028,0-2.013,0.029-2.955,0.09
	l-0.164-0.197l0.164-2.43l-3.515,2.682c-0.279,0.205-0.677,0.332-1.197,0.381c-0.205,0.023-0.447,0.035-0.725,0.035
	c-1.341,0-2.371-0.404-3.09-1.213c-0.719-0.811-1.078-1.928-1.078-3.352c0-1.887,0.598-3.222,1.793-4.007
	c1.292-0.857,3.897-1.63,7.811-2.32c0-1.92-0.506-3.208-1.522-3.86c-0.615-0.398-1.353-0.598-2.21-0.598
	c-0.942,0-1.686,0.193-2.229,0.58L23.58,14.48l-0.236,0.127l-0.924-0.217l-0.125-0.254l0.089-2.139
	c1.994-1.475,3.492-2.308,4.496-2.501c0.422-0.085,0.973-0.127,1.648-0.127c2.38,0,4.078,0.623,5.094,1.867
	c0.736,0.905,1.105,2.296,1.105,4.167c0,0.458-0.019,1.196-0.055,2.21c-0.059,1.694-0.089,2.823-0.089,3.391
	c0,1.824,0.031,2.986,0.089,3.488c0.062,0.5,0.203,0.816,0.427,0.951c0.224,0.133,0.759,0.211,1.601,0.234l0.184,0.201V26.897z
	 M30.231,22.672v-4.458c-1.994,0.436-3.336,0.903-4.032,1.404c-0.694,0.5-1.042,1.266-1.042,2.293c0,1.643,0.718,2.465,2.156,2.465
	C28.535,24.377,29.507,23.807,30.231,22.672z"/>
<path fill="#fff" d="M49.915,9.497l-0.126,3.226c-0.012,0.533-0.035,1.135-0.072,1.813l-0.76,0.236
	c-0.57-0.821-1.355-1.233-2.357-1.233c-0.908,0-1.655,0.362-2.248,1.088c-0.362,0.447-0.543,1.104-0.543,1.975v4.241
	c0,0.881,0.042,2.107,0.126,3.678c0.024,0.447,0.15,0.738,0.381,0.871c0.229,0.135,1.07,0.225,2.52,0.273l0.181,0.162v1.105
	l-0.181,0.182c-1.777-0.074-3.54-0.109-5.292-0.109c-2.162,0-3.813,0.041-4.947,0.125l-0.184-0.178v-1.109l0.184-0.178
	c1.158-0.037,1.877-0.131,2.157-0.273c0.239-0.109,0.374-0.398,0.396-0.871c0.086-1.57,0.128-3.252,0.128-5.055v-2.592
	c0-2.416-0.095-3.805-0.273-4.168c-0.119-0.241-0.379-0.393-0.777-0.454c-0.145-0.024-0.673-0.054-1.576-0.09l-0.183-0.182v-1.014
	l0.183-0.199c2.176-0.205,4.465-0.706,6.868-1.504l0.397,0.235l-0.034,3.551c0.749-0.869,1.654-1.885,2.718-3.044
	c0.494-0.482,1.17-0.725,2.029-0.725C49.136,9.279,49.564,9.353,49.915,9.497z"/>
<path fill="#fff" d="M69.474,26.952l-0.183,0.178c-1.183-0.084-2.251-0.125-3.207-0.125c-0.905,0-2.134,0.041-3.68,0.125
	l-0.164-0.125c0.049-0.592,0.073-1.582,0.073-2.973c-0.436,0.363-1.055,0.92-1.865,1.668c-1.003,0.93-1.654,1.484-1.96,1.668
	c-0.384,0.18-1.013,0.27-1.885,0.27c-2.063,0-3.732-0.777-5-2.336c-1.269-1.559-1.903-3.578-1.903-6.052
	c0-2.406,0.489-4.279,1.47-5.621c0.251-0.351,1.001-0.972,2.248-1.866c1.446-1.04,2.506-1.698,3.171-1.976
	c0.579-0.243,1.315-0.361,2.21-0.361c1.254,0,2.429,0.265,3.515,0.796V9.207c0-3.178-0.078-5.05-0.233-5.618
	c-0.085-0.316-0.335-0.507-0.744-0.58c-0.195-0.036-0.751-0.073-1.668-0.109l-0.182-0.2V1.704l0.182-0.2
	C61.99,1.262,64.326,0.761,66.683,0l0.397,0.218c0,0.047-0.024,0.646-0.07,1.794c-0.109,2.597-0.165,6.499-0.165,11.707v5.854
	c0,3.396,0.078,5.261,0.235,5.599c0.099,0.207,0.23,0.332,0.399,0.381c0.266,0.086,0.87,0.164,1.812,0.236l0.183,0.182V26.952z
	 M62.313,17.489v-3.407c-0.868-1.039-1.702-1.703-2.501-1.994c-0.544-0.191-1.123-0.29-1.739-0.29c-1.668,0-2.741,0.858-3.224,2.574
	c-0.269,0.955-0.399,2.018-0.399,3.19c0,2.5,0.584,4.356,1.757,5.563c0.615,0.641,1.442,0.961,2.482,0.961
	c0.859,0,1.656-0.27,2.393-0.814c0.663-0.482,1.057-1.004,1.178-1.559C62.296,21.543,62.313,20.135,62.313,17.489z"/>
<path fill="#fff" d="M17.234,34.29v3.813h-0.475V34.29H17.234z"/>
<path fill="#fff" d="M23.431,37.108V34.29h0.474v3.973l-2.895-2.936v2.775h-0.513v-4.02L23.431,37.108z"/>
<path fill="#fff" d="M26.794,34.731V34.29h2.331v0.441h-0.88v3.371h-0.534v-3.371H26.794z"/>
<path fill="#fff" d="M34.253,34.29v0.441h-1.566v1.008h1.527v0.438h-1.527v1.449h1.566v0.477h-2.085V34.29H34.253z"/>
<path fill="#fff" d="M38.633,34.29c0.273,0.021,0.496,0.111,0.664,0.27c0.169,0.158,0.281,0.33,0.339,0.514
	c0.01,0.045,0.021,0.09,0.026,0.133c0.007,0.043,0.01,0.086,0.01,0.131c0,0.34-0.094,0.604-0.286,0.787
	c-0.19,0.186-0.414,0.299-0.678,0.342l1.253,1.637h-0.609l-1.13-1.604h-0.198v1.604h-0.482V34.29H38.633z M38.023,36.137
	c0.366,0.004,0.653-0.041,0.858-0.133c0.208-0.092,0.311-0.266,0.311-0.523v-0.07c0-0.168-0.072-0.322-0.218-0.465
	c-0.142-0.145-0.417-0.215-0.824-0.215h-0.127V36.137z"/>
<path fill="#fff" d="M45.803,37.108V34.29h0.476v3.973l-2.896-2.936v2.775h-0.515v-4.02L45.803,37.108z"/>
<path fill="#fff" d="M51.631,34.29v0.441h-1.565v1.008h1.529v0.438h-1.529v1.449h1.565v0.477h-2.084V34.29H51.631z"/>
<path fill="#fff" d="M54.542,34.731V34.29h2.328v0.441h-0.877v3.371h-0.535v-3.371H54.542z"/>
</svg>
